<svg aria-hidden="true" style="position: absolute; width: 0; height: 0; overflow: hidden;" version="1.1" xmlns="http://www.w3.org/2000/svg" xmlns:xlink="http://www.w3.org/1999/xlink">
<defs>
<symbol id="icon-arrows" viewBox="0 0 18 32">
<path fill="none" stroke="#fff" style="stroke: var(--color1, #fff)" stroke-linejoin="round" stroke-linecap="round" stroke-miterlimit="10" stroke-width="1.7143" d="M15.177 6.819l-4.968 4.968c-0.587 0.587-1.547 0.587-2.133 0l-4.968-4.968"></path>
<path fill="none" stroke="#838383" style="stroke: var(--color2, #838383)" stroke-linejoin="round" stroke-linecap="round" stroke-miterlimit="10" stroke-width="1.7143" d="M15.177 13.676l-4.968 4.968c-0.587 0.587-1.547 0.587-2.133 0l-4.968-4.968"></path>
<path fill="none" stroke="#aeaeae" style="stroke: var(--color3, #aeaeae)" stroke-linejoin="round" stroke-linecap="round" stroke-miterlimit="10" stroke-width="1.7143" d="M15.177 20.533l-4.968 4.968c-0.587 0.587-1.547 0.587-2.133 0l-4.968-4.968"></path>
</symbol>
<symbol id="icon-Vector" viewBox="0 0 64 32">
<path fill="none" stroke="#fff" style="stroke: var(--color1, #fff)" stroke-linejoin="round" stroke-linecap="round" stroke-miterlimit="10" stroke-width="6.8571" d="M56.137 4.419l-19.871 19.87c-2.347 2.347-6.187 2.347-8.533 0l-19.87-19.87"></path>
</symbol>
<symbol id="icon-burger" viewBox="0 0 32 32">
<path fill="#fff" style="fill: var(--color1, #fff)" d="M1.191 27.391l26.2-26.2c0.658-0.658 1.724-0.658 2.382 0s0.658 1.724 0 2.382l-26.2 26.2c-0.658 0.658-1.724 0.658-2.382 0s-0.658-1.724 0-2.382z"></path>
<path fill="#fff" style="fill: var(--color1, #fff)" d="M13.678 11.296l16.673 16.673c0.658 0.658 0.658 1.724 0 2.382s-1.724 0.658-2.382 0l-16.673-16.673c-0.658-0.658-0.658-1.724 0-2.382s1.724-0.658 2.382 0z"></path>
<path fill="#fff" style="fill: var(--color1, #fff)" d="M3.573 1.191l26.2 26.2c0.658 0.658 0.658 1.724 0 2.382s-1.724 0.658-2.382 0l-26.2-26.2c-0.658-0.658-0.658-1.724 0-2.382s1.724-0.658 2.382 0z"></path>
</symbol>
<symbol id="icon-call" viewBox="0 0 32 32">
<path fill="none" stroke="#fff" style="stroke: var(--color1, #fff)" stroke-linejoin="miter" stroke-linecap="butt" stroke-miterlimit="10" stroke-width="2" d="M29.293 24.44c0 0.48-0.107 0.973-0.333 1.453s-0.52 0.933-0.907 1.36c-0.653 0.72-1.373 1.24-2.187 1.573-0.8 0.333-1.667 0.507-2.6 0.507-1.36 0-2.813-0.32-4.347-0.973s-3.067-1.533-4.587-2.64c-1.533-1.12-2.987-2.36-4.373-3.733-1.373-1.387-2.613-2.84-3.72-4.36-1.093-1.52-1.973-3.040-2.613-4.547-0.64-1.52-0.96-2.973-0.96-4.36 0-0.907 0.16-1.773 0.48-2.573 0.32-0.813 0.827-1.56 1.533-2.227 0.853-0.84 1.787-1.253 2.773-1.253 0.373 0 0.747 0.080 1.080 0.24 0.347 0.16 0.653 0.4 0.893 0.747l3.093 4.36c0.24 0.333 0.413 0.64 0.533 0.933 0.12 0.28 0.187 0.56 0.187 0.813 0 0.32-0.093 0.64-0.28 0.947-0.173 0.307-0.427 0.627-0.747 0.947l-1.013 1.053c-0.147 0.147-0.213 0.32-0.213 0.533 0 0.107 0.013 0.2 0.040 0.307 0.040 0.107 0.080 0.187 0.107 0.267 0.24 0.44 0.653 1.013 1.24 1.707 0.6 0.693 1.24 1.4 1.933 2.107 0.72 0.707 1.413 1.36 2.12 1.96 0.693 0.587 1.267 0.987 1.72 1.227 0.067 0.027 0.147 0.067 0.24 0.107 0.107 0.040 0.213 0.053 0.333 0.053 0.227 0 0.4-0.080 0.547-0.227l1.013-1c0.333-0.333 0.653-0.587 0.96-0.747 0.307-0.187 0.613-0.28 0.947-0.28 0.253 0 0.52 0.053 0.813 0.173s0.6 0.293 0.933 0.52l4.413 3.133c0.347 0.24 0.587 0.52 0.733 0.853 0.133 0.333 0.213 0.667 0.213 1.040z"></path>
<path fill="none" stroke="#fff" style="stroke: var(--color1, #fff)" stroke-linejoin="round" stroke-linecap="round" stroke-miterlimit="4" stroke-width="2" d="M24.667 12c0-0.8-0.627-2.027-1.56-3.027-0.853-0.92-1.987-1.64-3.107-1.64"></path>
<path fill="none" stroke="#fff" style="stroke: var(--color1, #fff)" stroke-linejoin="round" stroke-linecap="round" stroke-miterlimit="4" stroke-width="2" d="M29.333 12c0-5.16-4.173-9.333-9.333-9.333"></path>
</symbol>
<symbol id="icon-logo-za-1" viewBox="0 0 26 32">
<path d="M1.471 19.934c7.215 0 12.336 5.98 18.674 5.695 2.009 0 4.103-1.054 6.338-2.022l-0.113-0.228c-1.556 0.826-3.367 1.31-5.178 1.31-5.97 0-13.722-5.126-19.353-5.126l11.996-19.563h-11.94l-0.679 2.933c0.424-0.854 1.5-2.592 3.876-2.592h6.904l-11.996 19.592h1.471z"></path>
<path d="M11.976 19.903c0.025 0.009 0.049 0.019 0.074 0.028l2.309-6.463 2.907 8.269c0.556 0.156 1.101 0.29 1.631 0.395l-3.944-11.29-3.213 8.972c0.079 0.030 0.157 0.059 0.236 0.089z"></path>
<path d="M21.575 29.792l-0.663-1.899c-0.239 0.022-0.478 0.037-0.718 0.038-0.162 0.007-0.326 0.010-0.488 0.010-0.076 0-0.151-0.004-0.226-0.006l0.653 1.886c0.339 0.985-0.255 1.94-0.962 2.179h4.131c-0.707-0.239-1.302-0.955-1.726-2.208z"></path>
<path d="M10.271 25.003c-0.111-0.054-0.22-0.108-0.331-0.162l-1.805 5.041c-0.453 1.134-1.188 1.88-1.867 2.119h3.933c-0.707-0.239-2.122-0.806-1.33-3.074l1.4-3.924z"></path>
</symbol>
<symbol id="icon-logo-za" viewBox="0 0 28 32">
<path fill="#b29596" style="fill: var(--color4, #b29596)" d="M1.571 19.912c7.702 0 13.168 5.974 19.934 5.689 2.145 0 4.38-1.053 6.765-2.020l-0.121-0.228c-1.661 0.825-3.594 1.309-5.527 1.309-6.373 0-14.649-5.12-20.659-5.12l12.806-19.543h-12.745l-0.725 2.93c0.453-0.854 1.601-2.589 4.138-2.589h7.369l-12.806 19.571h1.571z"></path>
<path fill="#b29596" style="fill: var(--color4, #b29596)" d="M12.784 19.882c0.026 0.009 0.053 0.019 0.079 0.028l2.465-6.456 3.104 8.26c0.593 0.156 1.175 0.289 1.741 0.395l-4.211-11.278-3.43 8.963c0.084 0.030 0.168 0.059 0.252 0.089z"></path>
<path fill="#b29596" style="fill: var(--color4, #b29596)" d="M23.031 29.76l-0.708-1.897c-0.255 0.022-0.51 0.037-0.767 0.038-0.173 0.007-0.348 0.010-0.521 0.010-0.081 0-0.161-0.005-0.242-0.006l0.698 1.884c0.362 0.984-0.272 1.938-1.027 2.176h4.41c-0.755-0.239-1.389-0.954-1.842-2.206z"></path>
<path fill="#b29596" style="fill: var(--color4, #b29596)" d="M10.964 24.976c-0.118-0.054-0.235-0.108-0.353-0.162l-1.927 5.035c-0.483 1.133-1.269 1.878-1.993 2.117h4.198c-0.755-0.239-2.265-0.805-1.42-3.070l1.495-3.92z"></path>
</symbol>
<symbol id="icon-logo" viewBox="0 0 163 32">
<path fill="#fff" style="fill: var(--color1, #fff)" d="M19.558 23.651c-5.51 0-12.664-4.514-17.86-4.514l11.071-17.227h-11.019l-0.627 2.583c0.392-0.752 1.384-2.282 3.577-2.282h6.371l-11.071 17.252h1.358c6.658 0 11.385 5.266 17.234 5.015 1.854 0 3.786-0.928 5.849-1.78l-0.104-0.201c-1.436 0.727-3.107 1.153-4.778 1.153z"></path>
<path fill="#fff" style="fill: var(--color1, #fff)" d="M11.053 19.436c0.023 0.008 0.046 0.017 0.068 0.025l2.131-5.691 2.683 7.282c0.513 0.137 1.016 0.255 1.506 0.348l-3.64-9.942-2.966 7.901c0.072 0.026 0.145 0.052 0.217 0.078z"></path>
<path fill="#fff" style="fill: var(--color1, #fff)" d="M19.911 28.144l-0.612-1.672c-0.22 0.020-0.441 0.032-0.663 0.034-0.149 0.006-0.301 0.009-0.45 0.009-0.070 0-0.139-0.004-0.209-0.005l0.603 1.661c0.313 0.867-0.235 1.708-0.888 1.918h3.812c-0.653-0.21-1.201-0.841-1.593-1.945z"></path>
<path fill="#fff" style="fill: var(--color1, #fff)" d="M9.479 23.927c-0.102-0.048-0.203-0.095-0.305-0.143l-1.666 4.439c-0.418 0.998-1.097 1.656-1.724 1.866h3.63c-0.653-0.21-1.958-0.71-1.227-2.707l1.292-3.455z"></path>
<path fill="#fff" style="fill: var(--color1, #fff)" d="M47.907 8.263h-6.379v0.437h4.915c-0.869 1.399-1.738 2.783-2.606 4.153s-1.746 2.754-2.631 4.153h6.379v-0.425h-4.915c0.877-1.399 1.746-2.785 2.606-4.159s1.737-2.76 2.631-4.159z"></path>
<path fill="#fff" style="fill: var(--color1, #fff)" d="M50.252 17.006h6.193v-0.425h-4.989v-4.521h3.549v-0.425h-3.549v-2.935h4.989v-0.437h-6.193v8.743z"></path>
<path fill="#fff" style="fill: var(--color1, #fff)" d="M62.514 14.183l-2.681-5.92h-1.216v8.743h0.422v-7.856l3.090 6.82 3.078-6.782v7.819h1.191v-8.743h-1.204l-2.681 5.92z"></path>
<path fill="#fff" style="fill: var(--color1, #fff)" d="M69.501 17.006h1.204v-4.946h3.549v-0.425h-3.549v-2.935h4.989v-0.437h-6.193v8.743z"></path>
<path fill="#fff" style="fill: var(--color1, #fff)" d="M77.866 17.006h1.191v-8.743h-1.191v8.743z"></path>
<path fill="#fff" style="fill: var(--color1, #fff)" d="M87.794 11.891c-0.141 0.321-0.354 0.587-0.639 0.799s-0.643 0.318-1.074 0.318h-2.718v-4.309h2.718c0.43 0 0.789 0.106 1.074 0.318s0.498 0.479 0.639 0.799c0.141 0.321 0.211 0.666 0.211 1.037s-0.070 0.716-0.211 1.037zM88.706 9.374c-0.244-0.325-0.581-0.591-1.011-0.799s-0.951-0.312-1.564-0.312h-3.971v8.743h1.204v-3.572h2.767c0.116 0 0.232-0.004 0.348-0.013s0.227-0.021 0.335-0.037l1.688 3.622h0.459l-1.726-3.722c0.488-0.141 0.886-0.362 1.192-0.662s0.521-0.637 0.645-1.012c0.124-0.375 0.155-0.76 0.094-1.155s-0.216-0.756-0.46-1.080z"></path>
<path fill="#fff" style="fill: var(--color1, #fff)" d="M92.46 14.108l1.762-4.371 1.762 4.371h-3.525zM93.627 8.263l0.359 0.899-3.152 7.844h0.459l1.006-2.473h3.847l1.005 2.473h1.192l-3.513-8.743h-1.203z"></path>
<path fill="#fff" style="fill: var(--color1, #fff)" d="M105.554 14.108l1.762-4.371 1.762 4.371h-3.525zM106.72 8.263l0.36 0.899-3.152 7.844h0.458l1.006-2.473h3.847l1.006 2.473h1.191l-3.512-8.743h-1.204z"></path>
<path fill="#fff" style="fill: var(--color1, #fff)" d="M119.31 15.526c-0.145 0.304-0.36 0.556-0.646 0.756s-0.643 0.3-1.073 0.3h-2.793v-4.072h2.793c0.43 0 0.788 0.1 1.073 0.3s0.501 0.452 0.646 0.756c0.145 0.304 0.218 0.631 0.218 0.98s-0.073 0.677-0.218 0.98zM114.799 8.7h2.358c0.43 0 0.786 0.083 1.068 0.25s0.494 0.375 0.638 0.625c0.145 0.25 0.218 0.522 0.218 0.818s-0.073 0.568-0.218 0.818c-0.145 0.25-0.358 0.458-0.638 0.625s-0.638 0.25-1.068 0.25h-2.358v-3.385zM120.607 13.827c-0.116-0.354-0.325-0.674-0.626-0.962s-0.698-0.497-1.186-0.631c0.398-0.158 0.714-0.364 0.95-0.618s0.391-0.529 0.466-0.824c0.074-0.296 0.066-0.593-0.025-0.893s-0.261-0.57-0.509-0.812c-0.249-0.242-0.579-0.439-0.993-0.593s-0.91-0.231-1.49-0.231h-3.586v8.743h4.033c0.613 0 1.132-0.1 1.558-0.3s0.763-0.454 1.012-0.762c0.248-0.308 0.405-0.649 0.471-1.024s0.042-0.739-0.074-1.093z"></path>
<path fill="#fff" style="fill: var(--color1, #fff)" d="M123.598 17.006h1.191v-8.743h-1.191v8.743z"></path>
<path fill="#fff" style="fill: var(--color1, #fff)" d="M127.086 8.7h3.239v8.306h1.191v-8.306h3.226v-0.437h-7.657v0.437z"></path>
<path fill="#fff" style="fill: var(--color1, #fff)" d="M144.119 14.183c-0.146 0.508-0.362 0.96-0.652 1.355s-0.65 0.714-1.080 0.955c-0.43 0.242-0.934 0.362-1.514 0.362s-1.086-0.121-1.521-0.362c-0.434-0.241-0.796-0.56-1.086-0.955s-0.507-0.847-0.651-1.355c-0.146-0.508-0.218-1.024-0.218-1.549s0.072-1.041 0.218-1.549c0.144-0.508 0.362-0.96 0.651-1.355s0.652-0.714 1.086-0.955c0.434-0.242 0.942-0.362 1.521-0.362s1.083 0.121 1.514 0.362c0.43 0.242 0.79 0.56 1.080 0.955s0.506 0.847 0.652 1.355c0.144 0.508 0.217 1.024 0.217 1.549s-0.073 1.041-0.217 1.549zM144.398 9.48c-0.39-0.429-0.878-0.774-1.465-1.037s-1.274-0.393-2.060-0.393c-0.786 0-1.475 0.131-2.066 0.393s-1.084 0.608-1.477 1.037c-0.394 0.429-0.687 0.918-0.882 1.468s-0.291 1.112-0.291 1.686 0.097 1.136 0.291 1.686c0.194 0.55 0.488 1.039 0.882 1.468s0.885 0.775 1.477 1.037c0.591 0.262 1.28 0.393 2.066 0.393s1.473-0.131 2.060-0.393c0.587-0.262 1.075-0.608 1.465-1.037s0.682-0.918 0.881-1.468c0.198-0.55 0.298-1.112 0.298-1.686s-0.099-1.137-0.298-1.686c-0.198-0.55-0.492-1.039-0.881-1.468z"></path>
<path fill="#fff" style="fill: var(--color1, #fff)" d="M151.236 15.544l-2.929-7.282h-1.179l3.5 8.743h0.459l3.537-8.743h-0.459l-2.929 7.282z"></path>
<path fill="#fff" style="fill: var(--color1, #fff)" d="M157.318 14.108l1.762-4.371 1.762 4.371h-3.524zM159.688 8.263h-1.204l0.36 0.899-3.152 7.844h0.458l1.006-2.473h3.847l1.006 2.473h1.191l-3.512-8.743z"></path>
<path fill="#fff" style="fill: var(--color1, #fff)" d="M79.861 26.93h0.279v-4.249h-0.279v4.249z"></path>
<path fill="#fff" style="fill: var(--color1, #fff)" d="M84.475 26.284c-0.068 0.070-0.137 0.135-0.206 0.196s-0.144 0.112-0.225 0.156c-0.080 0.044-0.167 0.078-0.261 0.102s-0.197 0.037-0.31 0.037c-0.075 0-0.148-0.011-0.218-0.032s-0.131-0.055-0.184-0.101c-0.054-0.046-0.096-0.104-0.128-0.175s-0.048-0.155-0.048-0.252c0-0.103 0.031-0.195 0.094-0.276s0.157-0.15 0.286-0.209 0.292-0.105 0.49-0.139c0.198-0.034 0.434-0.056 0.71-0.066v0.759zM84.514 24.262c-0.077-0.092-0.173-0.164-0.289-0.213s-0.252-0.074-0.406-0.074c-0.211 0-0.399 0.039-0.566 0.117s-0.326 0.193-0.476 0.345l0.049 0.085c0.010 0.016 0.022 0.028 0.035 0.038s0.031 0.015 0.052 0.015c0.029 0 0.065-0.020 0.107-0.058s0.098-0.082 0.166-0.129c0.068-0.047 0.15-0.090 0.248-0.128s0.217-0.058 0.356-0.058c0.226 0 0.397 0.073 0.512 0.218s0.173 0.352 0.173 0.621v0.304c-0.327 0.008-0.607 0.035-0.84 0.082s-0.425 0.109-0.574 0.187c-0.149 0.078-0.258 0.169-0.328 0.274s-0.104 0.219-0.104 0.342c0 0.132 0.022 0.246 0.065 0.34s0.102 0.172 0.174 0.232 0.155 0.105 0.248 0.134c0.093 0.029 0.189 0.044 0.287 0.044 0.118 0 0.226-0.012 0.325-0.035s0.191-0.056 0.276-0.099c0.086-0.043 0.167-0.095 0.246-0.158s0.157-0.132 0.236-0.21l0.041 0.374c0.014 0.055 0.050 0.082 0.107 0.082h0.11v-1.892c0-0.162-0.019-0.308-0.058-0.44s-0.097-0.243-0.173-0.336z"></path>
<path fill="#fff" style="fill: var(--color1, #fff)" d="M88.873 25.575c-0.074-0.057-0.16-0.104-0.257-0.142s-0.195-0.072-0.294-0.104c-0.1-0.031-0.198-0.062-0.294-0.094s-0.182-0.068-0.257-0.111c-0.074-0.043-0.135-0.094-0.182-0.155s-0.070-0.136-0.070-0.228c0-0.074 0.017-0.145 0.050-0.212s0.079-0.126 0.141-0.177c0.061-0.051 0.134-0.091 0.22-0.121s0.182-0.045 0.286-0.045c0.117 0 0.215 0.012 0.296 0.037s0.15 0.052 0.205 0.082 0.099 0.058 0.132 0.082c0.033 0.024 0.060 0.036 0.082 0.036 0.029 0 0.051-0.014 0.066-0.041l0.058-0.096c-0.112-0.105-0.237-0.183-0.373-0.234s-0.293-0.076-0.469-0.076c-0.147 0-0.28 0.021-0.398 0.064s-0.218 0.1-0.301 0.172c-0.082 0.072-0.146 0.156-0.19 0.251s-0.067 0.195-0.067 0.298c0 0.121 0.023 0.222 0.070 0.302s0.108 0.149 0.183 0.206c0.075 0.057 0.161 0.103 0.257 0.14s0.194 0.071 0.294 0.102 0.199 0.062 0.294 0.093c0.096 0.031 0.182 0.069 0.257 0.114s0.137 0.099 0.183 0.164c0.046 0.064 0.070 0.145 0.070 0.242 0 0.088-0.016 0.171-0.048 0.25s-0.078 0.147-0.141 0.206c-0.062 0.058-0.139 0.105-0.232 0.139s-0.2 0.051-0.322 0.051c-0.13 0-0.238-0.016-0.326-0.047s-0.162-0.065-0.222-0.101c-0.060-0.036-0.108-0.070-0.144-0.101s-0.066-0.047-0.091-0.047c-0.022 0-0.038 0.004-0.051 0.012s-0.023 0.019-0.033 0.035l-0.064 0.099c0.116 0.105 0.247 0.19 0.394 0.256s0.322 0.098 0.526 0.098c0.162 0 0.306-0.023 0.432-0.070s0.232-0.11 0.318-0.19c0.086-0.080 0.151-0.174 0.195-0.283s0.067-0.227 0.067-0.353c0-0.117-0.023-0.216-0.070-0.298s-0.107-0.151-0.182-0.207z"></path>
<path fill="#fff" style="fill: var(--color1, #fff)" d="M93.648 24.272c-0.079-0.095-0.179-0.168-0.301-0.219s-0.261-0.076-0.419-0.076c-0.213 0-0.405 0.049-0.576 0.146s-0.323 0.228-0.457 0.391v-1.834h-0.278v4.249h0.278v-2.185c0.128-0.171 0.273-0.305 0.437-0.402s0.339-0.145 0.526-0.145c0.254 0 0.442 0.077 0.566 0.232s0.186 0.368 0.186 0.641v1.858h0.278v-1.858c0-0.169-0.020-0.321-0.061-0.456s-0.101-0.249-0.18-0.345z"></path>
<path fill="#fff" style="fill: var(--color1, #fff)" d="M101.33 25.575c-0.074-0.057-0.16-0.104-0.257-0.142s-0.194-0.072-0.294-0.104c-0.099-0.031-0.198-0.062-0.294-0.094s-0.182-0.068-0.257-0.111c-0.074-0.043-0.135-0.094-0.182-0.155s-0.070-0.136-0.070-0.228c0-0.074 0.017-0.145 0.050-0.212s0.080-0.126 0.141-0.177 0.134-0.091 0.22-0.121c0.086-0.030 0.182-0.045 0.286-0.045 0.116 0 0.214 0.012 0.296 0.037s0.149 0.052 0.204 0.082 0.099 0.058 0.132 0.082c0.034 0.024 0.060 0.036 0.082 0.036 0.029 0 0.051-0.014 0.067-0.041l0.058-0.096c-0.112-0.105-0.237-0.183-0.373-0.234s-0.293-0.076-0.469-0.076c-0.147 0-0.279 0.021-0.398 0.064s-0.218 0.1-0.3 0.172c-0.082 0.072-0.146 0.156-0.19 0.251s-0.066 0.195-0.066 0.298c0 0.121 0.023 0.222 0.070 0.302s0.107 0.149 0.182 0.206c0.076 0.057 0.162 0.103 0.257 0.14s0.194 0.071 0.295 0.102c0.1 0.031 0.198 0.062 0.294 0.093s0.181 0.069 0.257 0.114c0.075 0.045 0.136 0.099 0.182 0.164s0.070 0.145 0.070 0.242c0 0.088-0.016 0.171-0.048 0.25s-0.078 0.147-0.14 0.206c-0.062 0.058-0.14 0.105-0.233 0.139s-0.2 0.051-0.322 0.051c-0.13 0-0.238-0.016-0.326-0.047s-0.162-0.065-0.222-0.101c-0.060-0.036-0.108-0.070-0.143-0.101s-0.066-0.047-0.092-0.047c-0.021 0-0.038 0.004-0.050 0.012s-0.024 0.019-0.034 0.035l-0.064 0.099c0.116 0.105 0.248 0.19 0.395 0.256s0.322 0.098 0.525 0.098c0.162 0 0.307-0.023 0.433-0.070s0.231-0.11 0.318-0.19c0.086-0.080 0.151-0.174 0.196-0.283s0.066-0.227 0.066-0.353c0-0.117-0.023-0.216-0.070-0.298s-0.107-0.151-0.182-0.207z"></path>
<path fill="#fff" style="fill: var(--color1, #fff)" d="M105.374 26.553c-0.014 0-0.032 0.010-0.055 0.031s-0.053 0.043-0.090 0.067c-0.037 0.024-0.081 0.047-0.13 0.067s-0.11 0.031-0.18 0.031c-0.057 0-0.109-0.009-0.157-0.026s-0.090-0.045-0.126-0.082c-0.036-0.037-0.064-0.084-0.084-0.142s-0.030-0.126-0.030-0.206v-1.971h0.911v-0.207h-0.911v-1.11h-0.131c-0.021 0-0.038 0.007-0.049 0.020s-0.019 0.029-0.023 0.047l-0.070 1.040-0.494 0.035v0.108c0 0.021 0.006 0.038 0.020 0.050s0.031 0.018 0.053 0.018h0.414v1.986c0 0.228 0.055 0.396 0.164 0.505s0.262 0.164 0.458 0.164c0.122 0 0.239-0.025 0.352-0.074s0.206-0.115 0.28-0.197l-0.075-0.123c-0.015-0.020-0.031-0.029-0.046-0.029z"></path>
<path fill="#fff" style="fill: var(--color1, #fff)" d="M109.765 26.209c-0.127 0.171-0.273 0.305-0.437 0.402s-0.338 0.145-0.526 0.145c-0.254 0-0.442-0.077-0.566-0.232s-0.186-0.368-0.186-0.641v-1.857h-0.278v1.857c0 0.169 0.021 0.321 0.061 0.456s0.101 0.249 0.18 0.345c0.080 0.095 0.179 0.168 0.299 0.219s0.26 0.076 0.421 0.076c0.214 0 0.41-0.051 0.585-0.152s0.33-0.236 0.463-0.403l0.026 0.432c0.008 0.051 0.036 0.076 0.084 0.076h0.154v-2.906h-0.279v2.184z"></path>
<path fill="#fff" style="fill: var(--color1, #fff)" d="M114.704 26.176c-0.12 0.179-0.258 0.318-0.415 0.418s-0.33 0.149-0.519 0.149c-0.298 0-0.526-0.102-0.683-0.305s-0.237-0.521-0.237-0.953c0-0.191 0.022-0.366 0.066-0.524s0.108-0.295 0.194-0.409c0.086-0.114 0.193-0.202 0.321-0.264s0.277-0.094 0.446-0.094c0.173 0 0.326 0.034 0.46 0.102s0.257 0.186 0.367 0.353v1.527zM114.704 24.404c-0.106-0.142-0.231-0.249-0.374-0.321s-0.312-0.108-0.508-0.108c-0.203 0-0.382 0.039-0.538 0.117s-0.287 0.185-0.394 0.32-0.187 0.295-0.242 0.479c-0.055 0.184-0.082 0.382-0.082 0.594 0 0.495 0.098 0.865 0.296 1.113s0.474 0.371 0.83 0.371c0.213 0 0.405-0.052 0.575-0.155s0.318-0.242 0.446-0.418l0.029 0.459c0.008 0.051 0.037 0.076 0.087 0.076h0.151v-4.249h-0.276v1.723z"></path>
<path fill="#fff" style="fill: var(--color1, #fff)" d="M117.705 26.93h0.276v-2.906h-0.276v2.906z"></path>
<path fill="#fff" style="fill: var(--color1, #fff)" d="M118.021 22.838c-0.023-0.023-0.050-0.042-0.081-0.055s-0.064-0.020-0.099-0.020c-0.034 0-0.067 0.007-0.098 0.020s-0.058 0.032-0.082 0.055c-0.023 0.023-0.042 0.051-0.055 0.083s-0.020 0.066-0.020 0.101c0 0.035 0.007 0.068 0.020 0.098s0.032 0.057 0.055 0.080c0.024 0.023 0.050 0.042 0.082 0.056s0.064 0.020 0.098 0.020c0.035 0 0.068-0.007 0.099-0.020s0.058-0.032 0.081-0.056c0.023-0.023 0.042-0.050 0.057-0.080s0.022-0.063 0.022-0.098c0-0.035-0.007-0.069-0.022-0.101s-0.034-0.060-0.057-0.083z"></path>
<path fill="#fff" style="fill: var(--color1, #fff)" d="M122.815 26.003c-0.043 0.157-0.107 0.291-0.194 0.402s-0.193 0.196-0.322 0.256c-0.129 0.059-0.279 0.089-0.451 0.089s-0.323-0.030-0.451-0.089c-0.129-0.059-0.236-0.145-0.322-0.256s-0.151-0.245-0.194-0.402c-0.043-0.157-0.066-0.333-0.066-0.527 0-0.193 0.022-0.368 0.066-0.526s0.108-0.293 0.194-0.404c0.086-0.112 0.194-0.198 0.322-0.258s0.278-0.091 0.451-0.091c0.172 0 0.322 0.030 0.451 0.091s0.236 0.146 0.322 0.258c0.086 0.112 0.15 0.247 0.194 0.404s0.063 0.333 0.063 0.526c0 0.195-0.021 0.37-0.063 0.527zM122.818 24.386c-0.112-0.13-0.25-0.231-0.414-0.302s-0.348-0.106-0.555-0.106-0.393 0.036-0.556 0.106c-0.163 0.071-0.302 0.172-0.415 0.302s-0.199 0.288-0.258 0.472c-0.059 0.184-0.089 0.39-0.089 0.618s0.030 0.433 0.089 0.616c0.058 0.183 0.145 0.34 0.258 0.47s0.252 0.231 0.415 0.301 0.349 0.105 0.556 0.105c0.207 0 0.392-0.035 0.555-0.105s0.302-0.17 0.414-0.301c0.113-0.13 0.198-0.287 0.257-0.47s0.089-0.388 0.089-0.616c0-0.228-0.030-0.434-0.089-0.618s-0.144-0.341-0.257-0.472z"></path>
<path fill="#fff" style="fill: var(--color1, #fff)" d="M32.195 32h0.407v-32h-0.407v32z"></path>
</symbol>
<symbol id="icon-logoZA" viewBox="0 0 28 32">
<path fill="#fff" style="fill: var(--color1, #fff)" d="M1.558 19.814c7.642 0 13.066 5.944 19.778 5.661 2.128 0 4.345-1.047 6.713-2.010l-0.12-0.226c-1.648 0.821-3.566 1.302-5.484 1.302-6.323 0-14.534-5.095-20.498-5.095l12.706-19.446h-12.646l-0.719 2.916c0.45-0.849 1.588-2.576 4.106-2.576h7.312l-12.706 19.475h1.558z"></path>
<path fill="#fff" style="fill: var(--color1, #fff)" d="M12.685 19.784c0.026 0.009 0.052 0.019 0.078 0.028l2.446-6.425 3.079 8.22c0.589 0.155 1.166 0.288 1.728 0.393l-4.178-11.223-3.403 8.919c0.083 0.030 0.167 0.059 0.25 0.088z"></path>
<path fill="#fff" style="fill: var(--color1, #fff)" d="M22.851 29.613l-0.703-1.887c-0.253 0.022-0.506 0.037-0.761 0.038-0.171 0.007-0.345 0.010-0.517 0.010-0.080 0-0.16-0.005-0.24-0.006l0.692 1.875c0.36 0.979-0.27 1.928-1.019 2.166h4.375c-0.749-0.237-1.379-0.949-1.828-2.195z"></path>
<path fill="#fff" style="fill: var(--color1, #fff)" d="M10.879 24.853c-0.117-0.054-0.234-0.107-0.35-0.161l-1.912 5.011c-0.479 1.127-1.259 1.869-1.978 2.106h4.165c-0.749-0.237-2.247-0.801-1.408-3.055l1.483-3.9z"></path>
</symbol>
<symbol id="icon-magicpen" viewBox="0 0 32 32">
<path stroke-linejoin="round" stroke-linecap="round" stroke-miterlimit="4" stroke-width="1.6" d="M4.667 27.333c1.107 1.107 2.893 1.107 4 0l17.333-17.333c1.107-1.107 1.107-2.893 0-4s-2.893-1.107-4 0l-17.333 17.333c-1.107 1.107-1.107 2.893 0 4z"></path>
<path stroke-linejoin="round" stroke-linecap="round" stroke-miterlimit="4" stroke-width="1.2" d="M24.013 11.987l-4-4"></path>
<path stroke-linejoin="round" stroke-linecap="round" stroke-miterlimit="4" stroke-width="1.2" d="M11.333 3.253l2-0.587-0.587 2 0.587 2-2-0.587-2 0.587 0.587-2-0.587-2 2 0.587z"></path>
<path stroke-linejoin="round" stroke-linecap="round" stroke-miterlimit="4" stroke-width="1.2" d="M6 11.253l2-0.587-0.587 2 0.587 2-2-0.587-2 0.587 0.587-2-0.587-2 2 0.587z"></path>
<path stroke-linejoin="round" stroke-linecap="round" stroke-miterlimit="4" stroke-width="1.2" d="M26 17.92l2-0.587-0.587 2 0.587 2-2-0.587-2 0.587 0.587-2-0.587-2 2 0.587z"></path>
</symbol>
<symbol id="icon-map" viewBox="0 0 23 32">
<path fill="#34a853" style="fill: var(--color5, #34a853)" d="M6.155 23.704c0.925 1.179 1.768 2.422 2.521 3.718 0.643 1.219 0.911 2.046 1.381 3.515 0.288 0.812 0.549 1.054 1.108 1.054 0.61 0 0.887-0.412 1.101-1.049 0.444-1.387 0.793-2.446 1.342-3.446 1.079-1.931 2.42-3.648 3.737-5.297 0.357-0.467 2.662-3.187 3.7-5.332 0 0 1.276-2.357 1.276-5.649 0-3.079-1.258-5.215-1.258-5.215l-3.623 0.97-2.2 5.794-0.544 0.799-0.109 0.145-0.145 0.181-0.254 0.289-0.363 0.363-1.959 1.596-4.898 2.828-0.815 4.738z"></path>
<path fill="#fbbc04" style="fill: var(--color6, #fbbc04)" d="M1.1 16.47c1.195 2.73 3.5 5.13 5.060 7.237l8.283-9.812c0 0-1.167 1.526-3.284 1.526-2.358 0-4.263-1.883-4.263-4.257 0-1.628 0.98-2.747 0.98-2.747l-5.623 1.507-1.153 6.546z"></path>
<path fill="#4285f4" style="fill: var(--color7, #4285f4)" d="M14.536 0.504c2.751 0.887 5.106 2.749 6.53 5.495l-6.62 7.889c0 0 0.98-1.139 0.98-2.757 0-2.43-2.046-4.245-4.256-4.245-2.090 0-3.29 1.524-3.29 1.524v-4.97l6.657-2.937z"></path>
<path fill="#1a73e8" style="fill: var(--color8, #1a73e8)" d="M2.617 3.99c1.643-1.966 4.535-3.99 8.521-3.99 1.934 0 3.391 0.508 3.391 0.508l-6.656 7.908h-4.716l-0.54-4.425z"></path>
<path fill="#ea4335" style="fill: var(--color9, #ea4335)" d="M1.1 16.471c0 0-1.1-2.153-1.1-5.273 0-2.949 1.146-5.526 2.617-7.206l5.259 4.426-6.777 8.054z"></path>
</symbol>
<symbol id="icon-menu-burger" viewBox="0 0 64 32">
<path fill="#fff" style="fill: var(--color1, #fff)" d="M2 0h60c1.105 0 2 0.895 2 2s-0.895 2-2 2h-60c-1.105 0-2-0.895-2-2s0.895-2 2-2z"></path>
<path fill="#fff" style="fill: var(--color1, #fff)" d="M34 14h28c1.105 0 2 0.895 2 2s-0.895 2-2 2h-28c-1.105 0-2-0.895-2-2s0.895-2 2-2z"></path>
<path fill="#fff" style="fill: var(--color1, #fff)" d="M18 28h44c1.105 0 2 0.895 2 2s-0.895 2-2 2h-44c-1.105 0-2-0.895-2-2s0.895-2 2-2z"></path>
</symbol>
<symbol id="icon-mouse" viewBox="0 0 32 32">
<path fill="none" stroke="#fff" style="stroke: var(--color1, #fff)" stroke-linejoin="miter" stroke-linecap="butt" stroke-miterlimit="4" stroke-width="0.75" d="M31.625 16c0 8.629-6.996 15.625-15.625 15.625s-15.625-6.996-15.625-15.625c0-8.629 6.996-15.625 15.625-15.625s15.625 6.996 15.625 15.625z"></path>
<path fill="none" stroke="#fff" style="stroke: var(--color1, #fff)" stroke-linejoin="round" stroke-linecap="round" stroke-miterlimit="4" stroke-width="0.75" d="M16 21c2.065 0 3.75-1.685 3.75-3.75v-2.5c0-2.065-1.685-3.75-3.75-3.75s-3.75 1.685-3.75 3.75v2.5c0 2.065 1.685 3.75 3.75 3.75z"></path>
<path fill="none" stroke="#fff" style="stroke: var(--color1, #fff)" stroke-linejoin="round" stroke-linecap="round" stroke-miterlimit="4" stroke-width="0.75" d="M16 15.5c-0.415 0-0.75-0.335-0.75-0.75v-1c0-0.415 0.335-0.75 0.75-0.75 0.41 0 0.75 0.335 0.75 0.75v1c0 0.415-0.34 0.75-0.75 0.75z"></path>
<path fill="none" stroke="#fff" style="stroke: var(--color1, #fff)" stroke-linejoin="round" stroke-linecap="round" stroke-miterlimit="4" stroke-width="0.75" d="M16 13v-2"></path>
</symbol>
<symbol id="icon-Property" viewBox="0 0 47 32">
<path fill="#fff" style="fill: var(--color1, #fff)" d="M2.563 25.302h-2.439v0.165h1.879c-0.332 0.528-0.664 1.051-0.997 1.568s-0.668 1.040-1.006 1.568h2.439v-0.16h-1.879c0.335-0.528 0.668-1.052 0.997-1.571s0.664-1.042 1.006-1.571z"></path>
<path fill="#fff" style="fill: var(--color1, #fff)" d="M3.46 28.603h2.368v-0.16h-1.908v-1.707h1.357v-0.16h-1.357v-1.108h1.908v-0.165h-2.368v3.302z"></path>
<path fill="#fff" style="fill: var(--color1, #fff)" d="M8.149 27.537l-1.025-2.236h-0.465v3.302h0.161v-2.967l1.182 2.575 1.177-2.561v2.953h0.456v-3.302h-0.46l-1.025 2.236z"></path>
<path fill="#fff" style="fill: var(--color1, #fff)" d="M10.821 28.603h0.46v-1.868h1.357v-0.16h-1.357v-1.108h1.908v-0.165h-2.368v3.302z"></path>
<path fill="#fff" style="fill: var(--color1, #fff)" d="M14.020 28.603h0.456v-3.302h-0.456v3.302z"></path>
<path fill="#fff" style="fill: var(--color1, #fff)" d="M17.817 26.672c-0.054 0.121-0.135 0.222-0.244 0.302s-0.246 0.12-0.411 0.12h-1.039v-1.627h1.039c0.165 0 0.301 0.040 0.411 0.12s0.191 0.181 0.244 0.302c0.054 0.121 0.081 0.252 0.081 0.391s-0.027 0.27-0.081 0.392zM18.166 25.721c-0.093-0.123-0.223-0.223-0.387-0.302s-0.364-0.118-0.598-0.118h-1.519v3.302h0.46v-1.349h1.058c0.044 0 0.089-0.002 0.133-0.005s0.087-0.008 0.128-0.014l0.646 1.368h0.176l-0.66-1.406c0.187-0.053 0.339-0.137 0.456-0.25s0.199-0.241 0.247-0.382c0.047-0.141 0.059-0.287 0.036-0.436s-0.082-0.285-0.176-0.408z"></path>
<path fill="#fff" style="fill: var(--color1, #fff)" d="M19.601 27.509l0.674-1.651 0.674 1.651h-1.348zM20.048 25.302l0.138 0.34-1.206 2.962h0.176l0.384-0.934h1.471l0.384 0.934h0.456l-1.343-3.302h-0.46z"></path>
<path fill="#fff" style="fill: var(--color1, #fff)" d="M24.608 27.509l0.674-1.651 0.674 1.651h-1.348zM25.055 25.302l0.138 0.34-1.205 2.962h0.176l0.384-0.934h1.471l0.384 0.934h0.456l-1.343-3.302h-0.46z"></path>
<path fill="#fff" style="fill: var(--color1, #fff)" d="M29.87 28.044c-0.055 0.115-0.138 0.21-0.247 0.285s-0.246 0.113-0.41 0.113h-1.068v-1.538h1.068c0.165 0 0.301 0.038 0.41 0.113s0.192 0.171 0.247 0.285c0.055 0.115 0.083 0.238 0.083 0.37s-0.028 0.256-0.083 0.37zM28.144 25.467h0.902c0.165 0 0.301 0.031 0.408 0.094s0.189 0.141 0.244 0.236 0.083 0.197 0.083 0.309c0 0.112-0.028 0.215-0.083 0.309s-0.137 0.173-0.244 0.236c-0.108 0.063-0.244 0.094-0.408 0.094h-0.902v-1.278zM30.366 27.403c-0.044-0.134-0.124-0.255-0.24-0.363s-0.267-0.188-0.453-0.238c0.152-0.060 0.273-0.138 0.363-0.233s0.15-0.2 0.178-0.311c0.028-0.112 0.025-0.224-0.010-0.337s-0.1-0.215-0.195-0.307c-0.095-0.091-0.221-0.166-0.38-0.224s-0.348-0.087-0.57-0.087h-1.372v3.302h1.542c0.234 0 0.433-0.038 0.596-0.113s0.292-0.171 0.387-0.288c0.095-0.116 0.155-0.245 0.18-0.387s0.016-0.279-0.028-0.413z"></path>
<path fill="#fff" style="fill: var(--color1, #fff)" d="M31.509 28.603h0.456v-3.302h-0.456v3.302z"></path>
<path fill="#fff" style="fill: var(--color1, #fff)" d="M32.843 25.467h1.239v3.136h0.456v-3.136h1.234v-0.165h-2.928v0.165z"></path>
<path fill="#fff" style="fill: var(--color1, #fff)" d="M39.357 27.537c-0.055 0.192-0.138 0.362-0.249 0.512s-0.249 0.27-0.413 0.361-0.358 0.137-0.579 0.137c-0.221 0-0.415-0.045-0.581-0.137s-0.305-0.211-0.415-0.361c-0.111-0.149-0.194-0.32-0.249-0.512s-0.083-0.387-0.083-0.585c0-0.198 0.028-0.393 0.083-0.585s0.138-0.362 0.249-0.512c0.111-0.149 0.249-0.27 0.415-0.361s0.36-0.137 0.581-0.137c0.221 0 0.414 0.046 0.579 0.137s0.302 0.211 0.413 0.361c0.111 0.149 0.194 0.32 0.249 0.512s0.083 0.387 0.083 0.585c0 0.198-0.028 0.393-0.083 0.585zM39.464 25.762c-0.149-0.162-0.335-0.293-0.56-0.391s-0.487-0.148-0.788-0.148-0.564 0.049-0.79 0.148c-0.226 0.099-0.414 0.23-0.565 0.391s-0.263 0.347-0.337 0.554c-0.074 0.208-0.112 0.42-0.112 0.637s0.037 0.429 0.112 0.637c0.074 0.208 0.187 0.392 0.337 0.554s0.339 0.293 0.565 0.392c0.226 0.099 0.49 0.148 0.79 0.148s0.563-0.049 0.788-0.148c0.225-0.099 0.411-0.23 0.56-0.392s0.261-0.347 0.337-0.554 0.114-0.42 0.114-0.637c0-0.217-0.038-0.429-0.114-0.637s-0.188-0.392-0.337-0.554z"></path>
<path fill="#fff" style="fill: var(--color1, #fff)" d="M42.079 28.051l-1.12-2.75h-0.451l1.338 3.302h0.176l1.353-3.302h-0.176l-1.12 2.75z"></path>
<path fill="#fff" style="fill: var(--color1, #fff)" d="M44.404 27.509l0.674-1.651 0.674 1.651h-1.348zM45.311 25.302h-0.46l0.138 0.34-1.206 2.962h0.176l0.384-0.934h1.471l0.384 0.934h0.456l-1.343-3.302z"></path>
<path fill="#fff" style="fill: var(--color1, #fff)" d="M14.82 13.573c5.214 0 8.916 4.072 13.496 3.878 1.452 0 2.965-0.717 4.581-1.377l-0.082-0.155c-1.125 0.562-2.433 0.892-3.742 0.892-4.315 0-9.918-3.49-13.987-3.49l8.67-13.321h-8.629l-0.491 1.997c0.307-0.582 1.084-1.765 2.802-1.765h4.989l-8.67 13.341h1.063z"></path>
<path fill="#fff" style="fill: var(--color1, #fff)" d="M22.413 13.552c0.018 0.006 0.036 0.013 0.054 0.019l1.669-4.401 2.101 5.631c0.402 0.106 0.796 0.197 1.179 0.269l-2.851-7.688-2.322 6.11c0.057 0.020 0.114 0.040 0.17 0.061z"></path>
<path fill="#fff" style="fill: var(--color1, #fff)" d="M29.35 20.286l-0.479-1.293c-0.172 0.015-0.345 0.025-0.519 0.026-0.117 0.005-0.235 0.007-0.353 0.007-0.055 0-0.109-0.003-0.164-0.004l0.472 1.285c0.245 0.671-0.184 1.321-0.695 1.483h2.986c-0.511-0.163-0.941-0.65-1.247-1.504z"></path>
<path fill="#fff" style="fill: var(--color1, #fff)" d="M21.18 17.025c-0.080-0.037-0.159-0.074-0.239-0.11l-1.305 3.432c-0.327 0.772-0.859 1.28-1.35 1.443h2.842c-0.511-0.163-1.534-0.549-0.961-2.093l1.012-2.672z"></path>
<path fill="#fff" style="fill: var(--color1, #fff)" d="M14.783 31.982h0.107v-1.605h-0.107v1.605z"></path>
<path fill="#fff" style="fill: var(--color1, #fff)" d="M16.548 31.739c-0.026 0.026-0.052 0.051-0.079 0.074s-0.055 0.042-0.086 0.059c-0.031 0.017-0.064 0.029-0.1 0.039s-0.075 0.014-0.118 0.014c-0.029 0-0.057-0.004-0.083-0.012s-0.050-0.021-0.070-0.038c-0.021-0.017-0.037-0.039-0.049-0.066s-0.018-0.059-0.018-0.095c0-0.039 0.012-0.074 0.036-0.104s0.060-0.057 0.109-0.079c0.049-0.022 0.112-0.039 0.188-0.052s0.166-0.021 0.271-0.025v0.287zM16.563 30.975c-0.029-0.035-0.066-0.062-0.11-0.080s-0.096-0.028-0.155-0.028c-0.081 0-0.153 0.015-0.217 0.044s-0.124 0.073-0.182 0.13l0.019 0.032c0.004 0.006 0.008 0.011 0.013 0.014s0.012 0.006 0.020 0.006c0.011 0 0.025-0.007 0.041-0.022s0.037-0.031 0.063-0.048c0.026-0.018 0.058-0.034 0.095-0.049s0.083-0.022 0.136-0.022c0.087 0 0.152 0.027 0.196 0.082s0.066 0.133 0.066 0.234v0.115c-0.125 0.003-0.232 0.013-0.321 0.031s-0.162 0.041-0.219 0.071c-0.057 0.029-0.099 0.064-0.125 0.104s-0.040 0.083-0.040 0.129c0 0.050 0.008 0.093 0.025 0.129s0.039 0.065 0.067 0.088c0.028 0.023 0.059 0.040 0.095 0.051s0.072 0.017 0.11 0.017c0.045 0 0.087-0.005 0.124-0.013s0.073-0.021 0.105-0.038c0.033-0.016 0.064-0.036 0.094-0.059s0.060-0.050 0.090-0.079l0.016 0.141c0.005 0.021 0.019 0.031 0.041 0.031h0.042v-0.715c0-0.061-0.007-0.116-0.022-0.166s-0.037-0.092-0.066-0.127z"></path>
<path fill="#fff" style="fill: var(--color1, #fff)" d="M18.229 31.471c-0.028-0.021-0.061-0.039-0.098-0.054s-0.074-0.027-0.113-0.039c-0.038-0.012-0.076-0.023-0.113-0.035s-0.070-0.026-0.098-0.042c-0.029-0.016-0.052-0.036-0.069-0.058s-0.027-0.051-0.027-0.086c0-0.028 0.006-0.055 0.019-0.080s0.030-0.048 0.054-0.067c0.023-0.019 0.051-0.034 0.084-0.046s0.069-0.017 0.109-0.017c0.044 0 0.082 0.005 0.113 0.014s0.057 0.019 0.078 0.031c0.021 0.011 0.038 0.022 0.050 0.031s0.023 0.014 0.031 0.014c0.011 0 0.020-0.005 0.025-0.015l0.022-0.037c-0.043-0.040-0.090-0.069-0.143-0.088s-0.112-0.029-0.179-0.029c-0.056 0-0.107 0.008-0.152 0.024s-0.083 0.038-0.115 0.065c-0.031 0.027-0.056 0.059-0.073 0.095s-0.026 0.074-0.026 0.112c0 0.046 0.009 0.084 0.027 0.114s0.041 0.056 0.070 0.078c0.029 0.021 0.062 0.039 0.098 0.053s0.074 0.027 0.113 0.039c0.038 0.012 0.076 0.023 0.113 0.035s0.069 0.026 0.098 0.043 0.052 0.037 0.070 0.062c0.018 0.024 0.027 0.055 0.027 0.091 0 0.033-0.006 0.065-0.018 0.094s-0.030 0.056-0.054 0.078c-0.024 0.022-0.053 0.040-0.089 0.052s-0.077 0.019-0.123 0.019c-0.050 0-0.091-0.006-0.125-0.018s-0.062-0.025-0.085-0.038c-0.023-0.014-0.041-0.026-0.055-0.038s-0.025-0.018-0.035-0.018c-0.008 0-0.015 0.002-0.019 0.004s-0.009 0.007-0.013 0.013l-0.024 0.038c0.044 0.040 0.095 0.072 0.151 0.096s0.123 0.037 0.201 0.037c0.062 0 0.117-0.009 0.165-0.026s0.089-0.042 0.121-0.072c0.033-0.030 0.058-0.066 0.075-0.107s0.026-0.086 0.026-0.133c0-0.044-0.009-0.082-0.027-0.113s-0.041-0.057-0.069-0.078z"></path>
<path fill="#fff" style="fill: var(--color1, #fff)" d="M20.055 30.979c-0.030-0.036-0.069-0.064-0.115-0.083s-0.1-0.029-0.16-0.029c-0.081 0-0.155 0.018-0.22 0.055s-0.124 0.086-0.175 0.148v-0.693h-0.107v1.605h0.107v-0.825c0.049-0.065 0.105-0.115 0.167-0.152s0.13-0.055 0.201-0.055c0.097 0 0.169 0.029 0.217 0.088s0.071 0.139 0.071 0.242v0.701h0.106v-0.701c0-0.064-0.008-0.121-0.023-0.172s-0.038-0.094-0.069-0.13z"></path>
<path fill="#fff" style="fill: var(--color1, #fff)" d="M22.994 31.471c-0.029-0.021-0.061-0.039-0.098-0.054s-0.075-0.027-0.113-0.039c-0.038-0.012-0.076-0.023-0.113-0.035s-0.070-0.026-0.098-0.042c-0.029-0.016-0.052-0.036-0.069-0.058s-0.027-0.051-0.027-0.086c0-0.028 0.006-0.055 0.019-0.080s0.030-0.048 0.054-0.067c0.023-0.019 0.051-0.034 0.084-0.046s0.069-0.017 0.109-0.017c0.044 0 0.082 0.005 0.113 0.014s0.057 0.019 0.078 0.031 0.038 0.022 0.051 0.031c0.013 0.009 0.023 0.014 0.031 0.014 0.011 0 0.020-0.005 0.025-0.015l0.022-0.037c-0.043-0.040-0.090-0.069-0.143-0.088s-0.112-0.029-0.179-0.029c-0.056 0-0.107 0.008-0.152 0.024s-0.083 0.038-0.115 0.065c-0.032 0.027-0.056 0.059-0.073 0.095s-0.026 0.074-0.026 0.112c0 0.046 0.009 0.084 0.027 0.114s0.041 0.056 0.070 0.078c0.029 0.021 0.062 0.039 0.098 0.053s0.074 0.027 0.113 0.039c0.038 0.012 0.076 0.023 0.113 0.035s0.069 0.026 0.098 0.043 0.052 0.037 0.070 0.062c0.018 0.024 0.027 0.055 0.027 0.091 0 0.033-0.006 0.065-0.018 0.094s-0.030 0.056-0.054 0.078c-0.024 0.022-0.053 0.040-0.089 0.052s-0.077 0.019-0.123 0.019c-0.049 0-0.091-0.006-0.125-0.018s-0.062-0.025-0.085-0.038c-0.023-0.014-0.041-0.026-0.055-0.038s-0.025-0.018-0.035-0.018c-0.008 0-0.015 0.002-0.019 0.004s-0.009 0.007-0.013 0.013l-0.024 0.038c0.044 0.040 0.095 0.072 0.151 0.096s0.123 0.037 0.201 0.037c0.062 0 0.117-0.009 0.165-0.026s0.089-0.042 0.122-0.072c0.033-0.030 0.058-0.066 0.075-0.107s0.026-0.086 0.026-0.133c0-0.044-0.009-0.082-0.027-0.113s-0.041-0.057-0.069-0.078z"></path>
<path fill="#fff" style="fill: var(--color1, #fff)" d="M24.54 31.84c-0.005 0-0.012 0.004-0.021 0.012s-0.020 0.016-0.034 0.025c-0.014 0.009-0.031 0.018-0.050 0.025s-0.042 0.012-0.069 0.012c-0.022 0-0.042-0.003-0.060-0.010s-0.035-0.017-0.048-0.031c-0.014-0.014-0.024-0.032-0.032-0.054s-0.012-0.048-0.012-0.078v-0.744h0.348v-0.078h-0.348v-0.419h-0.050c-0.008 0-0.015 0.003-0.019 0.008s-0.007 0.011-0.009 0.018l-0.027 0.393-0.189 0.013v0.041c0 0.008 0.003 0.014 0.008 0.019s0.012 0.007 0.020 0.007h0.159v0.75c0 0.086 0.021 0.15 0.063 0.191s0.1 0.062 0.175 0.062c0.047 0 0.092-0.009 0.135-0.028s0.079-0.044 0.107-0.074l-0.029-0.046c-0.006-0.007-0.012-0.011-0.018-0.011z"></path>
<path fill="#fff" style="fill: var(--color1, #fff)" d="M26.219 31.71c-0.049 0.065-0.105 0.115-0.167 0.152s-0.13 0.055-0.201 0.055c-0.097 0-0.169-0.029-0.216-0.088s-0.071-0.139-0.071-0.242v-0.701h-0.106v0.701c0 0.064 0.008 0.121 0.023 0.172s0.038 0.094 0.069 0.13 0.068 0.064 0.114 0.083c0.046 0.019 0.1 0.029 0.161 0.029 0.082 0 0.157-0.019 0.224-0.057s0.126-0.089 0.177-0.152l0.010 0.163c0.003 0.019 0.014 0.029 0.032 0.029h0.059v-1.097h-0.106v0.825z"></path>
<path fill="#fff" style="fill: var(--color1, #fff)" d="M28.108 31.698c-0.046 0.068-0.099 0.12-0.159 0.158s-0.126 0.056-0.199 0.056c-0.114 0-0.201-0.038-0.261-0.115s-0.090-0.197-0.090-0.36c0-0.072 0.008-0.138 0.025-0.198s0.041-0.111 0.074-0.154c0.033-0.043 0.074-0.076 0.123-0.1s0.106-0.035 0.171-0.035c0.066 0 0.125 0.013 0.176 0.039s0.098 0.070 0.14 0.134v0.577zM28.108 31.028c-0.041-0.054-0.088-0.094-0.143-0.121s-0.119-0.041-0.194-0.041c-0.078 0-0.146 0.015-0.206 0.044s-0.11 0.070-0.15 0.121c-0.041 0.051-0.072 0.111-0.093 0.181s-0.032 0.144-0.032 0.224c0 0.187 0.038 0.327 0.113 0.42s0.181 0.14 0.317 0.14c0.081 0 0.155-0.020 0.22-0.058s0.122-0.091 0.171-0.158l0.011 0.173c0.003 0.019 0.014 0.029 0.033 0.029h0.058v-1.605h-0.105v0.651z"></path>
<path fill="#fff" style="fill: var(--color1, #fff)" d="M29.255 31.982h0.105v-1.097h-0.105v1.097z"></path>
<path fill="#fff" style="fill: var(--color1, #fff)" d="M29.376 30.437c-0.009-0.009-0.019-0.016-0.031-0.021s-0.024-0.008-0.038-0.008-0.026 0.003-0.038 0.008c-0.012 0.005-0.022 0.012-0.031 0.021s-0.016 0.019-0.021 0.031c-0.005 0.012-0.008 0.025-0.008 0.038s0.003 0.026 0.008 0.037c0.005 0.011 0.012 0.022 0.021 0.030s0.019 0.016 0.031 0.021c0.012 0.005 0.024 0.008 0.038 0.008s0.026-0.003 0.038-0.008c0.012-0.005 0.022-0.012 0.031-0.021s0.016-0.019 0.022-0.030 0.008-0.024 0.008-0.037c0-0.013-0.003-0.026-0.008-0.038s-0.013-0.023-0.022-0.031z"></path>
<path fill="#fff" style="fill: var(--color1, #fff)" d="M31.21 31.632c-0.016 0.059-0.041 0.11-0.074 0.152s-0.074 0.074-0.123 0.097c-0.049 0.022-0.107 0.034-0.173 0.034s-0.123-0.011-0.173-0.034c-0.049-0.022-0.090-0.055-0.123-0.097s-0.058-0.092-0.074-0.152c-0.017-0.059-0.025-0.126-0.025-0.199s0.008-0.139 0.025-0.199c0.017-0.059 0.041-0.11 0.074-0.153s0.074-0.075 0.123-0.098c0.049-0.023 0.107-0.034 0.173-0.034s0.123 0.012 0.173 0.034c0.049 0.023 0.090 0.055 0.123 0.098s0.058 0.093 0.074 0.153c0.016 0.059 0.024 0.126 0.024 0.199s-0.008 0.14-0.024 0.199zM31.211 31.022c-0.043-0.049-0.096-0.087-0.158-0.114s-0.133-0.040-0.213-0.040c-0.079 0-0.15 0.013-0.212 0.040s-0.115 0.065-0.159 0.114c-0.043 0.049-0.076 0.109-0.099 0.178s-0.034 0.147-0.034 0.233c0 0.086 0.011 0.164 0.034 0.233s0.055 0.128 0.099 0.177c0.043 0.049 0.096 0.087 0.159 0.114s0.133 0.040 0.212 0.040c0.079 0 0.15-0.013 0.213-0.040s0.115-0.064 0.158-0.114c0.043-0.049 0.076-0.108 0.098-0.177s0.034-0.147 0.034-0.233c0-0.086-0.011-0.164-0.034-0.233s-0.055-0.129-0.098-0.178z"></path>
</symbol>
</defs>
</svg>
